<svg width="25" height="24" viewBox="0 0 25 24" fill="none" xmlns="http://www.w3.org/2000/svg">
<path fill-rule="evenodd" clip-rule="evenodd" d="M15.6162 14.621C15.8843 14.4389 16.2159 14.4283 16.4878 14.5682C17.5507 14.9542 18.3133 15.2061 19.339 15.5413C19.7907 15.6191 20.0966 16.0523 20.0188 16.504L19.5236 19.3783C19.4458 19.83 19.0126 20.1359 18.5609 20.0581C10.8495 18.7298 5.67642 11.4036 7.00475 3.69219C7.08256 3.24051 7.51577 2.93461 7.96746 3.01242L10.8418 3.50753C11.2935 3.58534 11.5685 4.01431 11.5216 4.47024C11.4264 5.39499 11.4461 6.07981 11.4692 6.88727C11.4746 7.07737 11.4803 7.27427 11.4847 7.48269C11.5255 7.78568 11.4046 8.09465 11.1379 8.26856L9.85155 9.2562C9.14027 10.5474 13.1308 15.9914 14.3313 15.6004L15.6162 14.621ZM14.1247 13.2431L14.4472 12.9972L14.4925 12.9665C15.3385 12.3919 16.382 12.3318 17.2541 12.7186C18.2095 13.0644 18.9189 13.2997 19.8622 13.6082C21.3001 13.9541 22.2444 15.3654 21.9897 16.8435L21.4946 19.7178C21.2293 21.2581 19.7617 22.2944 18.2214 22.0291C9.42147 20.5132 3.51794 12.1526 5.03378 3.35268C5.29909 1.81246 6.76675 0.776134 8.30697 1.04144L11.1813 1.53656C12.8361 1.8216 13.6474 3.34963 13.5111 4.67489C13.4303 5.45962 13.4455 6.00101 13.4676 6.78746C13.4725 6.96444 13.4778 7.15382 13.4825 7.36118C13.5577 8.27971 13.1858 9.27465 12.3125 9.88822L11.9634 10.1562C12.1873 10.6531 12.5539 11.2731 12.9987 11.8921C13.3825 12.4263 13.7797 12.8974 14.1247 13.2431ZM11.7656 9.60014C11.761 9.5716 11.7641 9.57479 11.7661 9.60318L11.7656 9.60014Z" fill="white"/>
</svg>
