<svg width="25" height="24" viewBox="0 0 25 24" fill="none" xmlns="http://www.w3.org/2000/svg">
<path fill-rule="evenodd" clip-rule="evenodd" d="M22.7964 7C22.7964 5.34315 21.4533 4 19.7964 4L5.79645 4C4.13959 4 2.79645 5.34315 2.79645 7L2.79645 17C2.79645 18.6569 4.13959 20 5.79645 20L19.7964 20C21.4533 20 22.7964 18.6569 22.7964 17L22.7964 7ZM20.0387 6.02954C19.9611 6.01024 19.88 6 19.7964 6L5.79645 6C5.71602 6 5.63782 6.00949 5.56289 6.02742L12.0947 12.5593C12.4853 12.9498 13.1184 12.9498 13.509 12.5593L20.0387 6.02954ZM4.79645 8.08941L4.79645 17C4.79645 17.5523 5.24416 18 5.79645 18L19.7964 18C20.3487 18 20.7964 17.5523 20.7964 17L20.7964 8.10022L14.9232 13.9735C13.7516 15.1451 11.8521 15.1451 10.6805 13.9735L4.79645 8.08941Z" fill="white"/>
</svg>
