<svg width="33" height="34" viewBox="0 0 33 34" fill="none" xmlns="http://www.w3.org/2000/svg">
<path fill-rule="evenodd" clip-rule="evenodd" d="M21.066 9.07372H12.1605C10.1931 9.07372 8.5983 10.7243 8.5983 12.7603V21.9769C8.5983 24.0129 10.1931 25.6635 12.1605 25.6635H21.066C23.0333 25.6635 24.6282 24.0129 24.6282 21.9769V12.7603C24.6282 10.7243 23.0333 9.07372 21.066 9.07372ZM12.1605 7.23041C9.20948 7.23041 6.8172 9.70624 6.8172 12.7603V21.9769C6.8172 25.031 9.20948 27.5068 12.1605 27.5068H21.066C24.017 27.5068 26.4093 25.031 26.4093 21.9769V12.7603C26.4093 9.70624 24.017 7.23041 21.066 7.23041H12.1605ZM16.6133 21.0552C18.5806 21.0552 20.1755 19.4046 20.1755 17.3685C20.1755 15.3325 18.5806 13.6819 16.6133 13.6819C14.6459 13.6819 13.0511 15.3325 13.0511 17.3685C13.0511 19.4046 14.6459 21.0552 16.6133 21.0552ZM16.6133 22.8985C19.5643 22.8985 21.9566 20.4226 21.9566 17.3685C21.9566 14.3144 19.5643 11.8386 16.6133 11.8386C13.6622 11.8386 11.27 14.3144 11.27 17.3685C11.27 20.4226 13.6622 22.8985 16.6133 22.8985ZM21.9566 12.4724C22.4484 12.4724 22.8471 12.0597 22.8471 11.5507C22.8471 11.0417 22.4484 10.629 21.9566 10.629C21.4647 10.629 21.066 11.0417 21.066 11.5507C21.066 12.0597 21.4647 12.4724 21.9566 12.4724Z" fill="white"/>
</svg>
